<svg width="143" height="86" viewBox="0 0 143 86" fill="none" xmlns="http://www.w3.org/2000/svg">
<rect width="138" height="78" transform="translate(0.416992 7.75574) rotate(-3.22178)" fill="#B8DE64"/>
<path d="M46.4658 21.7448L47.9062 47.3343C47.9093 47.3892 48.0862 51.5108 45.6506 54.237C44.2514 55.8031 42.3147 56.6283 39.6239 56.7797C36.8783 56.9343 34.7483 56.283 33.1822 54.8838C30.514 52.5 30.2365 48.5493 30.2273 48.3846L28.7837 22.7402L23.6768 23.0276L25.1173 48.6171C25.0933 49.1693 25.4696 54.8772 29.649 58.6633C32.3172 61.0471 35.7411 62.1765 39.9145 61.9416C43.9781 61.7128 47.2018 60.2644 49.4788 57.6573C53.3137 53.365 53.0347 47.4313 53.0131 47.0469L51.5727 21.4574L46.4658 21.7448ZM78.7496 21.0844C77.117 20.4602 75.3381 20.1747 73.5809 20.2736L65.6734 20.7187L65.6703 20.6638L60.5085 20.9544L60.5116 21.0093L55.5694 21.2875L55.8569 26.3944L60.799 26.1162L61.272 34.5179L56.3298 34.7961L56.6204 39.9579L61.5625 39.6797L62.3817 54.2317L57.8788 54.4852L58.1663 59.5921L62.6691 59.3386L67.831 59.0481L72.3338 58.7946L72.0464 53.6877L67.5435 53.9411L66.7244 39.3892L74.9613 38.9255C76.6636 38.8297 78.2894 38.3526 79.8479 37.6589C83.3337 35.9753 85.0981 33.0666 84.8879 29.3325C84.6653 25.3787 82.5184 22.4698 78.7496 21.0844ZM77.7088 32.9316C76.3182 33.671 74.7806 33.7575 74.6708 33.7637L66.4338 34.2273L65.9609 25.8256L73.8684 25.3805C73.9264 25.4324 75.5737 25.3396 77.0966 25.97C78.8422 26.643 79.6759 27.7529 79.781 29.6199C79.8706 31.2124 79.2093 32.1861 77.7088 32.9316ZM117.052 38.4843C115.586 35.9227 111.656 31.6818 101.936 32.2289C101.662 32.2444 101.281 32.3209 100.841 32.3456C99.6393 32.5235 97.5588 32.7508 96.0483 32.34C93.476 31.6585 92.7514 29.5509 92.9394 27.9979C93.0725 26.4479 94.1329 24.7356 96.604 24.5965L110.442 23.8176L110.72 28.7598L115.882 28.4692L115.313 18.3652L96.3135 19.4347C93.8973 19.5707 91.8539 20.457 90.293 22.0873C88.8876 23.5435 88.0012 25.4113 87.7861 27.4616C87.3288 32.0596 90.2026 36.1395 94.731 37.3169C97.1935 38.0046 99.875 37.6884 101.461 37.4889C101.791 37.4704 102.117 37.3969 102.227 37.3907C107.389 37.1002 111.045 38.4368 112.569 41.0503C113.733 43.1332 113.506 45.9554 111.876 48.3057C109.846 51.3947 106.183 52.8679 102.076 52.3278C98.4697 51.8698 95.7621 49.7636 93.9563 46.0643C93.0794 44.1856 92.5226 42.1236 92.2404 40.0462L89.6626 40.2464L87.1397 40.4435C87.1489 40.6082 87.411 44.2843 89.226 48.1484C91.7865 53.513 95.9899 56.7469 101.427 57.4324C102.483 57.5933 103.587 57.6413 104.685 57.5795C109.408 57.3136 113.577 55.0408 116.17 51.2039C118.864 47.1962 119.196 42.3298 117.052 38.4843Z" fill="#131313"/>
</svg>
