<svg width="18" height="18" viewBox="0 0 18 18" fill="none" xmlns="http://www.w3.org/2000/svg">
<path fill-rule="evenodd" clip-rule="evenodd" d="M12.125 2.75C12.125 1.36929 13.2443 0.25 14.625 0.25C16.0057 0.25 17.125 1.36929 17.125 2.75C17.125 4.13071 16.0057 5.25 14.625 5.25C13.9111 5.25 13.2676 4.95062 12.8126 4.47186L5.79494 8.37057C5.84721 8.57195 5.875 8.78296 5.875 9C5.875 9.21704 5.84721 9.42805 5.79494 9.62944L12.8126 13.5281C13.2676 13.0494 13.9111 12.75 14.625 12.75C16.0057 12.75 17.125 13.8693 17.125 15.25C17.125 16.6307 16.0057 17.75 14.625 17.75C13.2443 17.75 12.125 16.6307 12.125 15.25C12.125 15.033 12.1528 14.8219 12.2051 14.6206L5.1874 10.7219C4.73237 11.2006 4.08889 11.5 3.375 11.5C1.99429 11.5 0.875 10.3807 0.875 9C0.875 7.61929 1.99429 6.5 3.375 6.5C4.08889 6.5 4.73237 6.79938 5.1874 7.27814L12.2051 3.37943C12.1528 3.17805 12.125 2.96704 12.125 2.75Z" fill="#DEDEDE"/>
</svg>
