<svg width="13" height="13" viewBox="0 0 13 13" fill="none" xmlns="http://www.w3.org/2000/svg">
<g clip-path="url(#clip0_81_3470)">
<path fill-rule="evenodd" clip-rule="evenodd" d="M2.0928 2.09274C2.28318 1.90236 2.59185 1.90236 2.78223 2.09274L10.9072 10.2177C11.0976 10.4081 11.0976 10.7168 10.9072 10.9072C10.7168 11.0975 10.4082 11.0975 10.2178 10.9072L2.0928 2.78217C1.90242 2.59179 1.90242 2.28312 2.0928 2.09274Z" fill="#696969"/>
<path fill-rule="evenodd" clip-rule="evenodd" d="M10.9072 2.09274C11.0976 2.28312 11.0976 2.59179 10.9072 2.78217L2.78223 10.9072C2.59185 11.0975 2.28318 11.0975 2.0928 10.9072C1.90242 10.7168 1.90242 10.4081 2.0928 10.2177L10.2178 2.09274C10.4082 1.90236 10.7168 1.90236 10.9072 2.09274Z" fill="#696969"/>
</g>
<defs>
<clipPath id="clip0_81_3470">
<rect width="13" height="13" fill="white"/>
</clipPath>
</defs>
</svg>
