<svg width="20" height="20" viewBox="0 0 20 20" fill="none" xmlns="http://www.w3.org/2000/svg">
<g clip-path="url(#clip0_81_3757)">
<path fill-rule="evenodd" clip-rule="evenodd" d="M3.21967 3.21967C3.51256 2.92678 3.98744 2.92678 4.28033 3.21967L16.7803 15.7197C17.0732 16.0126 17.0732 16.4874 16.7803 16.7803C16.4874 17.0732 16.0126 17.0732 15.7197 16.7803L3.21967 4.28033C2.92678 3.98744 2.92678 3.51256 3.21967 3.21967Z" fill="#131313"/>
<path fill-rule="evenodd" clip-rule="evenodd" d="M16.7803 3.21967C17.0732 3.51256 17.0732 3.98744 16.7803 4.28033L4.28033 16.7803C3.98744 17.0732 3.51256 17.0732 3.21967 16.7803C2.92678 16.4874 2.92678 16.0126 3.21967 15.7197L15.7197 3.21967C16.0126 2.92678 16.4874 2.92678 16.7803 3.21967Z" fill="#131313"/>
</g>
<defs>
<clipPath id="clip0_81_3757">
<rect width="20" height="20" fill="white"/>
</clipPath>
</defs>
</svg>
